<?xml version="1.0" encoding="utf-8"?>
<!-- Generator: Adobe Illustrator 16.0.0, SVG Export Plug-In . SVG Version: 6.00 Build 0)  -->
<!DOCTYPE svg PUBLIC "-//W3C//DTD SVG 1.1//EN" "http://www.w3.org/Graphics/SVG/1.1/DTD/svg11.dtd">
<svg version="1.1" id="圖層_1" xmlns="http://www.w3.org/2000/svg" xmlns:xlink="http://www.w3.org/1999/xlink" x="0px" y="0px"
	 width="225px" height="179.519px" viewBox="0 0 225 179.519" enable-background="new 0 0 225 179.519" xml:space="preserve">
<g>
	<path fill-rule="evenodd" clip-rule="evenodd" fill="#F50057" d="M145.688,161.333c-0.394,0.546-0.889,1.033-1.478,1.426
		c-1.883,1.255-4.547,0.906-6.68,0.62c-1.87-0.25-4.03-0.368-5.839-1.129c-1.271-0.414-2.682-1.031-4.242-1.865
		c-2.901-1.551-5.775-3.801-8.625-6.75c-2.851-2.948-5.351-6.574-7.5-10.875c-2.151-4.298-3.427-9.248-3.825-14.85
		c5.198,0,10.125-0.799,14.775-2.4c4.649-1.598,8.824-3.923,12.524-6.975c3.698-3.049,6.773-6.773,9.226-11.175
		c2.449-4.399,4.073-9.45,4.875-15.15c1.699-13.099-1.177-23.175-8.625-30.225c-7.451-7.05-18.676-11.175-33.676-12.375
		c-7-0.6-13.3-0.225-18.899,1.125c-5.602,1.35-10.526,3.352-14.775,6c-4.251,2.65-7.776,5.751-10.575,9.3
		c-2.801,3.551-4.875,7.275-6.225,11.175c-1.35,3.9-1.95,7.776-1.8,11.625c0.15,3.851,1.024,7.327,2.625,10.425
		c1.598,3,3.574,4.875,5.925,5.625c2.349,0.75,4.549,0.626,6.6-0.375c2.048-0.998,3.624-2.699,4.725-5.1
		c0.788-1.721,1.053-3.649,0.814-5.78c-0.193,0.02-0.392,0.03-0.598,0.03c-0.013,0-0.024-0.002-0.037-0.002
		c-0.016,0-0.03,0.002-0.046,0.002c-2.279,0-3.749-1.25-4.417-2.865c-0.417-0.789-0.627-1.826-0.592-3.16
		c0.049-1.949,0.623-4.274,1.725-6.975c1.1-2.7,2.75-5.25,4.95-7.65c2.198-2.4,4.999-4.474,8.4-6.225
		c3.398-1.749,7.449-2.674,12.15-2.775c12.199-0.199,21.375,2.001,27.525,6.6c6.149,4.601,8.674,11.65,7.575,21.149
		c-0.102,1.102-0.551,2.926-1.351,5.476c-0.802,2.55-2.175,5.2-4.125,7.95c-1.95,2.751-4.601,5.2-7.95,7.35
		c-3.352,2.151-7.574,3.276-12.675,3.375c-2.399,0.101-4.525,0.825-6.375,2.175c-1.852,1.351-3.025,3.825-3.525,7.425
		c-0.401,2.801-0.225,6.401,0.525,10.801c0.75,4.401,2.074,9,3.975,13.8c1.899,4.8,4.399,9.45,7.5,13.95
		c3.098,4.5,6.848,8.148,11.25,10.949c3.6,2.4,6.998,3.825,10.199,4.275c3.199,0.45,6.023,0.248,8.476-0.6
		c2.449-0.852,4.474-2.201,6.075-4.051c1.598-1.852,2.599-3.876,3-6.074c0.398-2.201,0.149-4.451-0.75-6.75
		C145.837,161.649,145.76,161.492,145.688,161.333z"/>
	<path fill-rule="evenodd" clip-rule="evenodd" fill="#F50057" d="M224.338,91.857c-2.822-16.608-12.48-27.479-27.939-33.617
		c-1.349-0.536-2.734-1.805-3.406-3.096c-10.928-20.963-28.146-29.681-51.48-26.188c-1.617,0.242-4.187-0.741-5.149-2.026
		C122.58,8.535,104.432-0.542,81.344,0.025C52.457,0.733,25.506,24.607,22.098,53.272c-0.667,5.605-2.25,9.619-7.06,13.107
		C6.108,72.858,2.362,82.735,0,93.161v10c0.299,0.942,0.695,1.865,0.882,2.829c3.477,17.952,17.154,32.093,35.431,33.686
		c7.9,0.688,15.855,0.754,23.838,0.65c0.162,2.089,0.675,4.082,1.6,5.96c1.5,3.052,3.499,5.175,6,6.375c2.499,1.2,5.25,1.2,8.25,0
		s5.7-4.2,8.1-9c0.698-1.399,1.5-3.45,2.4-6.15c0.9-2.699,1.849-5.699,2.85-9c0.999-3.3,1.999-6.773,3-10.425
		c0.999-3.649,1.973-7.099,2.925-10.35c0.949-3.249,1.774-6.174,2.475-8.775c0.698-2.599,1.249-4.5,1.65-5.7
		c0.6-1.8,1.25-3.698,1.95-5.699c0.699-2,1.475-3.676,2.325-5.025c0.542-0.861,1.096-1.496,1.659-1.95
		c0.801-0.811,1.937-1.341,3.416-1.341c0.316,0,0.613,0.031,0.898,0.076c0.172-1.366,0.085-2.671-0.273-3.91
		c-0.551-1.898-1.5-3.499-2.85-4.8c-1.351-1.299-2.951-2.225-4.801-2.775c-1.851-0.548-3.75-0.6-5.7-0.15
		c-1.95,0.45-3.851,1.477-5.7,3.075c-1.852,1.601-3.427,3.9-4.725,6.9c-0.6,1.301-1.376,3.4-2.325,6.3
		c-0.952,2.901-2.025,6.202-3.225,9.9c-1.2,3.7-2.4,7.552-3.6,11.55c-1.2,4.001-2.325,7.751-3.375,11.25
		c-1.05,3.502-1.976,6.551-2.775,9.15c-0.064,0.209-0.124,0.402-0.184,0.6c-9.92,0.056-19.843,0.2-29.745-0.208
		c-17.423-0.72-29.55-17.504-25.467-34.384c2.682-11.091,10.079-17.557,20.332-21.104c-0.407-29.586,13.24-49.742,37.359-55.459
		c25.121-5.954,45.547,5.398,59.126,32.863c22.153-14.42,47.359-1.932,51.444,21.757c0.467,0.094,0.947,0.236,1.436,0.283
		c15.661,1.479,26.793,13.739,26.367,29.051c-0.419,15.098-12.56,26.789-28.325,27.145c-3.09,0.069-6.181,0.079-9.272,0.071
		c-1.695,0.209-3.397,0.412-5.121,0.609c-4.951,0.566-10.916,1.141-15.546,3.071c-5.188,2.164-7.283,6.038-10.618,10.136
		c13.871,0,27.504,0.005,41.133-0.002c10.436-0.006,19.473-3.675,27.369-10.399c8.264-7.038,12.18-16.398,14.412-26.681v-10
		C224.773,92.727,224.416,92.316,224.338,91.857z"/>
</g>
</svg>
