<?xml version="1.0" encoding="utf-8"?>
<!-- Generator: Adobe Illustrator 16.0.0, SVG Export Plug-In . SVG Version: 6.00 Build 0)  -->
<!DOCTYPE svg PUBLIC "-//W3C//DTD SVG 1.1//EN" "http://www.w3.org/Graphics/SVG/1.1/DTD/svg11.dtd">
<svg version="1.1" id="圖層_1" xmlns="http://www.w3.org/2000/svg" xmlns:xlink="http://www.w3.org/1999/xlink" x="0px" y="0px"
	 width="225px" height="179.52px" viewBox="0 0 225 179.52" enable-background="new 0 0 225 179.52" xml:space="preserve">
<g>
	<path fill="#B2B2B2" d="M145.688,161.333c-0.394,0.546-0.889,1.031-1.478,1.426c-1.883,1.256-4.547,0.906-6.681,0.62
		c-1.869-0.25-4.029-0.367-5.838-1.129c-1.271-0.414-2.685-1.03-4.242-1.864c-2.901-1.552-5.775-3.802-8.625-6.75
		c-2.852-2.948-5.352-6.574-7.5-10.875c-2.151-4.299-3.427-9.248-3.825-14.851c5.198,0,10.125-0.801,14.774-2.399
		c4.647-1.599,8.824-3.924,12.522-6.976c3.698-3.051,6.771-6.772,9.228-11.177c2.449-4.397,4.074-9.448,4.875-15.148
		c1.699-13.101-1.176-23.175-8.625-30.227c-7.451-7.05-18.676-11.175-33.675-12.375c-7-0.6-13.3-0.225-18.899,1.125
		c-5.602,1.352-10.526,3.354-14.775,6c-4.251,2.65-7.776,5.751-10.575,9.302c-2.801,3.551-4.875,7.273-6.225,11.175
		c-1.35,3.898-1.95,7.774-1.8,11.625c0.15,3.852,1.024,7.327,2.625,10.426c1.598,3,3.574,4.875,5.925,5.625
		c2.349,0.75,4.549,0.626,6.6-0.375c2.048-0.998,3.624-2.699,4.725-5.101c0.788-1.723,1.053-3.648,0.814-5.78
		c-0.193,0.021-0.392,0.03-0.598,0.03c-0.013,0-0.024-0.002-0.037-0.002c-0.016,0-0.03,0.002-0.046,0.002
		c-2.279,0-3.749-1.25-4.417-2.865c-0.417-0.789-0.627-1.825-0.592-3.159c0.049-1.949,0.623-4.274,1.725-6.976
		c1.1-2.7,2.75-5.25,4.95-7.649c2.198-2.4,4.999-4.475,8.4-6.226c3.398-1.749,7.449-2.676,12.15-2.774
		c12.199-0.199,21.375,2.001,27.524,6.6c6.15,4.603,8.675,11.65,7.576,21.148c-0.104,1.103-0.551,2.927-1.354,5.477
		c-0.802,2.552-2.175,5.2-4.125,7.95c-1.947,2.751-4.604,5.2-7.947,7.352c-3.354,2.149-7.577,3.274-12.678,3.375
		c-2.399,0.102-4.525,0.823-6.375,2.175c-1.852,1.352-3.025,3.825-3.525,7.426c-0.401,2.801-0.225,6.4,0.525,10.801
		c0.75,4.401,2.074,9,3.975,13.8c1.899,4.802,4.399,9.45,7.5,13.95c3.098,4.5,6.848,8.147,11.25,10.949
		c3.602,2.399,6.998,3.824,10.199,4.274c3.198,0.448,6.022,0.248,8.477-0.602c2.449-0.853,4.475-2.201,6.074-4.052
		c1.6-1.854,2.601-3.876,3-6.073c0.397-2.201,0.148-4.451-0.75-6.75C145.837,161.649,145.76,161.492,145.688,161.333z"/>
	<path fill="#B2B2B2" d="M224.338,91.857c-2.822-16.606-12.48-27.479-27.939-33.617c-1.349-0.534-2.731-1.805-3.403-3.096
		c-10.931-20.963-28.146-29.682-51.479-26.188c-1.617,0.24-4.188-0.741-5.15-2.025C122.58,8.535,104.432-0.542,81.344,0.025
		C52.457,0.733,25.506,24.607,22.098,53.272c-0.667,5.604-2.25,9.619-7.06,13.106C6.108,72.858,2.362,82.735,0,93.161v10
		c0.299,0.94,0.695,1.863,0.882,2.827c3.477,17.952,17.154,32.095,35.431,33.688c7.9,0.688,15.855,0.754,23.838,0.649
		c0.162,2.089,0.675,4.082,1.6,5.96c1.5,3.052,3.499,5.175,6,6.375c2.499,1.198,5.25,1.198,8.25,0c3-1.2,5.7-4.2,8.1-9
		c0.698-1.398,1.5-3.45,2.4-6.149s1.849-5.699,2.85-9c0.999-3.301,1.999-6.773,3-10.426c0.999-3.648,1.973-7.101,2.925-10.352
		c0.949-3.249,1.774-6.174,2.475-8.773c0.698-2.601,1.249-4.5,1.65-5.699c0.6-1.801,1.25-3.698,1.95-5.699
		c0.699-2,1.475-3.676,2.325-5.023c0.542-0.86,1.096-1.496,1.659-1.95c0.801-0.813,1.937-1.341,3.416-1.341
		c0.316,0,0.613,0.029,0.898,0.074c0.172-1.364,0.085-2.671-0.273-3.908c-0.551-1.897-1.5-3.499-2.85-4.802
		c-1.351-1.299-2.951-2.225-4.801-2.773c-1.851-0.548-3.75-0.602-5.7-0.149c-1.95,0.45-3.851,1.479-5.7,3.075
		c-1.852,1.601-3.427,3.899-4.725,6.899c-0.6,1.301-1.376,3.398-2.325,6.3c-0.952,2.899-2.025,6.202-3.225,9.898
		c-1.2,3.7-2.4,7.554-3.6,11.552c-1.2,4.001-2.325,7.751-3.375,11.25c-1.05,3.502-1.976,6.551-2.775,9.148
		c-0.064,0.209-0.124,0.401-0.184,0.602c-9.92,0.057-19.843,0.198-29.745-0.208c-17.423-0.722-29.55-17.504-25.467-34.386
		c2.682-11.091,10.079-17.557,20.332-21.104c-0.407-29.587,13.24-49.742,37.359-55.46c25.121-5.953,45.547,5.396,59.125,32.863
		c22.151-14.422,47.357-1.934,51.442,21.757c0.467,0.095,0.944,0.234,1.438,0.283c15.66,1.479,26.793,13.737,26.367,29.051
		c-0.422,15.099-12.564,26.789-28.326,27.146c-3.09,0.068-6.183,0.079-9.271,0.071c-1.695,0.209-3.396,0.411-5.121,0.608
		c-4.951,0.564-10.916,1.142-15.546,3.069c-5.188,2.164-7.283,6.038-10.618,10.138c13.871,0,27.504,0.005,41.133-0.004
		c10.436-0.006,19.473-3.675,27.369-10.396c8.264-7.038,12.18-16.398,14.412-26.682v-10
		C224.773,92.727,224.416,92.316,224.338,91.857z"/>
</g>
</svg>
